<svg width="44" height="44" viewBox="0 0 44 44" fill="none" xmlns="http://www.w3.org/2000/svg">
<path d="M24.3794 42.3147L42.6719 24.3335C42.9786 24.0339 43.222 23.6775 43.3882 23.2848C43.5543 22.8921 43.6398 22.4709 43.6398 22.0455C43.6398 21.6201 43.5543 21.199 43.3882 20.8063C43.222 20.4136 42.9786 20.0572 42.6719 19.7576L24.3794 1.77646C23.7566 1.18506 22.9212 0.860644 22.0561 0.874187C21.2022 0.869136 20.3802 1.19293 19.7654 1.77646L1.47299 19.7898C1.16628 20.0894 0.922795 20.4458 0.756663 20.8385C0.59053 21.2312 0.505005 21.6524 0.505005 22.0778C0.505005 22.5032 0.59053 22.9244 0.756663 23.317C0.922795 23.7097 1.16628 24.0661 1.47299 24.3657L19.7654 42.3791C20.3871 42.9708 21.2214 43.2961 22.086 43.2841C22.9505 43.272 23.775 42.9235 24.3794 42.3147ZM9.5557 20.8855L20.9108 9.70367C21.2221 9.4064 21.6388 9.24014 22.0725 9.24014C22.5061 9.24014 22.9227 9.4064 23.2341 9.70367L34.5891 20.8855C34.8814 21.1905 35.0442 21.594 35.0442 22.0133C35.0442 22.4327 34.8814 22.8362 34.5891 23.1412L23.365 34.323C23.049 34.6258 22.6278 34.7986 22.187 34.8064C21.7562 34.7969 21.3458 34.6237 21.0417 34.323L9.68662 23.1412C9.36873 22.8573 9.17683 22.4617 9.15234 22.0397C9.12786 21.6178 9.27273 21.2032 9.5557 20.8855Z" fill="black"/>
</svg>
