<svg width="714" height="756" viewBox="0 0 714 756" fill="none" xmlns="http://www.w3.org/2000/svg">
<path fill-rule="evenodd" clip-rule="evenodd" d="M343.154 398.999C344.986 398.997 346.76 398.371 348.175 397.227C349.59 396.083 350.558 394.492 350.914 392.725C351.27 390.958 350.991 389.125 350.126 387.537C349.261 385.949 347.863 384.705 346.17 384.017C344.477 383.33 342.594 383.24 340.841 383.764C339.089 384.289 337.575 385.394 336.559 386.893C335.542 388.391 335.085 390.189 335.266 391.982C335.447 393.774 336.255 395.449 337.551 396.722C339.043 398.173 341.055 398.991 343.154 398.999ZM343.154 378.92C340.68 378.931 338.265 379.661 336.212 381.017C334.159 382.374 332.559 384.297 331.614 386.544C330.669 388.792 330.421 391.264 330.9 393.65C331.38 396.036 332.566 398.229 334.309 399.955C336.382 401.974 339.103 403.223 342.009 403.489C344.914 403.755 347.823 403.021 350.239 401.412L371.263 422.037C371.478 422.25 371.734 422.42 372.016 422.535C372.298 422.651 372.601 422.71 372.907 422.71C373.212 422.71 373.515 422.651 373.797 422.535C374.079 422.42 374.335 422.25 374.55 422.037C374.978 421.604 375.217 421.024 375.217 420.421C375.217 419.817 374.978 419.237 374.55 418.804L353.527 398.134C354.821 396.283 355.576 394.119 355.707 391.877C355.839 389.634 355.344 387.399 354.275 385.414C353.206 383.429 351.604 381.77 349.643 380.617C347.683 379.464 345.438 378.862 343.154 378.874L343.154 378.92ZM655.776 234.18C649.722 232.114 644.222 228.726 639.691 224.27C635.159 219.815 631.713 214.408 629.612 208.455C627.505 214.405 624.057 219.809 619.526 224.263C614.996 228.718 609.499 232.108 603.448 234.18C609.494 236.261 614.986 239.654 619.515 244.107C624.045 248.561 627.496 253.96 629.612 259.904C631.719 253.955 635.167 248.551 639.698 244.096C644.229 239.642 649.725 236.252 655.776 234.18ZM629.612 192.611C628.998 192.611 628.409 192.851 627.975 193.278C627.541 193.705 627.297 194.284 627.297 194.887C627.272 204.705 623.292 214.113 616.227 221.051C609.161 227.989 599.588 231.891 589.602 231.903C588.992 231.915 588.41 232.159 587.978 232.583C587.547 233.007 587.299 233.58 587.287 234.18C587.287 234.784 587.531 235.363 587.965 235.79C588.399 236.216 588.988 236.456 589.602 236.456C599.588 236.468 609.161 240.371 616.227 247.309C623.292 254.247 627.272 263.655 627.297 273.472C627.297 274.076 627.541 274.655 627.975 275.082C628.409 275.509 628.998 275.749 629.612 275.749C630.226 275.749 630.815 275.509 631.249 275.082C631.684 274.655 631.928 274.076 631.928 273.472C631.94 263.659 635.91 254.251 642.968 247.311C650.026 240.372 659.594 236.468 669.576 236.456C670.19 236.456 670.779 236.216 671.213 235.79C671.647 235.363 671.891 234.784 671.891 234.18C671.891 233.576 671.647 232.997 671.213 232.57C670.779 232.143 670.19 231.903 669.576 231.903C659.594 231.891 650.026 227.988 642.968 221.048C635.91 214.109 631.94 204.701 631.928 194.887C631.916 194.287 631.668 193.715 631.236 193.291C630.805 192.866 630.223 192.623 629.612 192.611ZM209.603 672.862C203.557 670.781 198.066 667.388 193.536 662.935C189.007 658.481 185.556 653.082 183.439 647.137C181.332 653.087 177.884 658.491 173.353 662.945C168.823 667.4 163.327 670.79 157.276 672.862C163.33 674.928 168.829 678.316 173.361 682.771C177.892 687.227 181.338 692.634 183.439 698.586C185.547 692.637 188.995 687.233 193.525 682.778C198.056 678.324 203.552 674.934 209.603 672.862ZM183.439 631.475C183.138 631.469 182.838 631.522 182.557 631.632C182.276 631.741 182.021 631.904 181.805 632.112C181.589 632.32 181.418 632.568 181.301 632.842C181.184 633.115 181.124 633.409 181.124 633.706C181.124 643.527 177.159 652.947 170.1 659.896C163.041 666.845 153.465 670.755 143.476 670.767C142.862 670.767 142.273 671.007 141.839 671.434C141.405 671.861 141.161 672.44 141.161 673.044C141.161 673.648 141.405 674.227 141.839 674.654C142.273 675.081 142.862 675.32 143.476 675.32C153.457 675.333 163.026 679.236 170.084 686.175C177.141 693.115 181.112 702.523 181.124 712.336C181.124 712.94 181.368 713.519 181.802 713.946C182.236 714.373 182.825 714.613 183.439 714.613C184.053 714.613 184.642 714.373 185.077 713.946C185.511 713.519 185.755 712.94 185.755 712.336C185.767 702.523 189.737 693.115 196.795 686.176C203.853 679.236 213.422 675.333 223.403 675.32C224.017 675.32 224.606 675.081 225.04 674.654C225.474 674.227 225.718 673.648 225.718 673.044C225.718 672.44 225.474 671.861 225.04 671.434C224.606 671.007 224.017 670.767 223.403 670.767C213.417 670.743 203.849 666.83 196.792 659.883C189.736 652.937 185.767 643.524 185.755 633.706C185.755 633.409 185.695 633.115 185.578 632.842C185.461 632.568 185.29 632.32 185.074 632.112C184.858 631.904 184.603 631.741 184.322 631.632C184.041 631.522 183.741 631.469 183.439 631.475ZM510.139 491.106C509.618 491.119 509.116 491.294 508.703 491.607C508.226 491.982 507.92 492.528 507.85 493.125C507.781 493.722 507.954 494.322 508.333 494.794L537.229 531.218C537.406 531.475 537.635 531.694 537.902 531.861C538.168 532.028 538.467 532.139 538.779 532.188C539.091 532.237 539.41 532.223 539.717 532.146C540.023 532.07 540.31 531.932 540.56 531.742C540.81 531.552 541.018 531.314 541.171 531.042C541.324 530.77 541.419 530.47 541.45 530.161C541.48 529.852 541.446 529.539 541.349 529.243C541.253 528.948 541.095 528.674 540.887 528.441L511.991 492.017C511.773 491.736 511.493 491.509 511.172 491.351C510.851 491.193 510.498 491.109 510.139 491.106ZM598.123 468.341C597.816 468.298 597.504 468.298 597.197 468.341C596.642 468.582 596.202 469.024 595.969 469.575C595.736 470.126 595.728 470.744 595.947 471.3L605.208 493.701C605.478 494.201 605.927 494.584 606.469 494.776C607.011 494.968 607.605 494.954 608.137 494.738C608.669 494.522 609.101 494.119 609.347 493.608C609.593 493.096 609.636 492.512 609.468 491.971L600.207 469.57C600.028 469.158 599.732 468.805 599.354 468.555C598.976 468.304 598.532 468.167 598.077 468.159L598.123 468.341ZM678.698 450.129C678.087 450.219 677.536 450.542 677.164 451.027C676.791 451.512 676.627 452.121 676.707 452.724L680.226 478.449C680.266 478.748 680.365 479.036 680.518 479.297C680.671 479.559 680.874 479.788 681.117 479.972C681.36 480.156 681.638 480.291 681.934 480.369C682.23 480.448 682.539 480.468 682.843 480.429C683.147 480.39 683.44 480.293 683.706 480.143C683.972 479.992 684.205 479.792 684.392 479.553C684.579 479.314 684.716 479.042 684.796 478.75C684.876 478.459 684.896 478.156 684.857 477.857L681.338 452.087C681.269 451.544 681.001 451.044 680.582 450.683C680.164 450.322 679.625 450.125 679.069 450.129L678.698 450.129ZM431.648 392.442C431.122 392.425 430.609 392.604 430.212 392.943C429.728 393.312 429.412 393.855 429.334 394.452C429.256 395.049 429.422 395.653 429.795 396.13L446.003 416.482C446.18 416.745 446.411 416.968 446.681 417.138C446.951 417.308 447.254 417.422 447.571 417.471C447.888 417.52 448.211 417.504 448.521 417.423C448.831 417.343 449.121 417.2 449.372 417.004C449.623 416.808 449.83 416.563 449.979 416.284C450.129 416.005 450.218 415.699 450.241 415.384C450.263 415.07 450.22 414.754 450.112 414.457C450.004 414.16 449.835 413.889 449.615 413.659L433.454 393.307C433.234 393.044 432.958 392.83 432.647 392.681C432.335 392.532 431.994 392.45 431.648 392.442ZM553.344 361.937C553.052 361.893 552.755 361.893 552.464 361.937C551.897 362.178 551.449 362.627 551.216 363.189C550.982 363.751 550.981 364.38 551.214 364.942L582.147 438.382C582.262 438.66 582.433 438.913 582.648 439.126C582.863 439.34 583.118 439.51 583.4 439.626C583.681 439.742 583.984 439.803 584.289 439.804C584.595 439.806 584.897 439.748 585.18 439.634C585.463 439.521 585.72 439.353 585.937 439.142C586.154 438.931 586.327 438.679 586.445 438.402C586.563 438.125 586.625 437.828 586.626 437.528C586.628 437.228 586.569 436.93 586.454 436.652L555.474 363.167C555.298 362.756 555.001 362.406 554.622 362.163C554.242 361.919 553.797 361.793 553.344 361.801L553.344 361.937ZM481.011 350.828C480.602 350.82 480.199 350.931 479.854 351.146C479.589 351.293 479.356 351.49 479.17 351.726C478.984 351.962 478.848 352.232 478.771 352.521C478.693 352.81 478.675 353.111 478.718 353.407C478.761 353.702 478.864 353.987 479.02 354.243L575.803 519.335C575.936 519.625 576.13 519.884 576.372 520.096C576.614 520.308 576.898 520.468 577.207 520.565C577.515 520.662 577.841 520.695 578.163 520.66C578.485 520.626 578.796 520.525 579.076 520.365C579.357 520.205 579.599 519.989 579.789 519.731C579.979 519.473 580.112 519.178 580.178 518.866C580.245 518.555 580.245 518.233 580.177 517.921C580.109 517.61 579.976 517.316 579.785 517.058L482.864 351.966C482.662 351.622 482.372 351.336 482.022 351.136C481.673 350.937 481.277 350.83 480.872 350.828L481.011 350.828ZM663.741 334.483L663.417 334.483C662.805 334.573 662.254 334.895 661.882 335.38C661.51 335.866 661.346 336.475 661.425 337.078L672.724 420.034C672.805 420.631 673.123 421.172 673.61 421.539C674.096 421.906 674.71 422.069 675.318 421.991C675.925 421.912 676.476 421.599 676.849 421.121C677.222 420.643 677.388 420.039 677.309 419.442L666.056 336.44C665.968 335.897 665.688 335.403 665.264 335.044C664.84 334.685 664.3 334.487 663.741 334.483ZM597.151 303.659L596.549 303.659C596.253 303.733 595.976 303.864 595.732 304.044C595.489 304.224 595.284 304.449 595.129 304.707C594.974 304.965 594.872 305.251 594.83 305.547C594.787 305.844 594.805 306.146 594.882 306.436L645.079 490.332C645.241 490.91 645.629 491.401 646.158 491.7C646.687 491.998 647.314 492.079 647.904 491.925C648.198 491.852 648.474 491.721 648.716 491.54C648.958 491.359 649.16 491.133 649.311 490.874C649.463 490.615 649.559 490.329 649.596 490.032C649.632 489.736 649.608 489.435 649.524 489.148L599.373 305.025C599.242 304.543 598.953 304.118 598.551 303.813C598.15 303.509 597.658 303.343 597.151 303.34L597.151 303.659ZM395.389 709.787C394.775 709.75 394.171 709.956 393.711 710.357C393.251 710.758 392.971 711.323 392.934 711.927C392.898 712.53 393.106 713.124 393.514 713.576C393.923 714.029 394.497 714.304 395.111 714.34L421.321 717.8C421.925 717.854 422.527 717.683 423.007 717.32C423.488 716.957 423.812 716.43 423.914 715.842C423.993 715.245 423.828 714.641 423.455 714.163C423.081 713.685 422.531 713.372 421.923 713.293L395.713 709.832L395.389 709.787ZM277.675 694.307C277.371 694.289 277.066 694.33 276.779 694.428C276.491 694.525 276.225 694.678 275.997 694.877C275.769 695.075 275.584 695.316 275.45 695.586C275.317 695.855 275.239 696.147 275.221 696.446C275.203 696.745 275.244 697.045 275.344 697.328C275.443 697.611 275.599 697.872 275.801 698.096C276.003 698.32 276.248 698.503 276.522 698.634C276.796 698.765 277.093 698.842 277.397 698.86L361.816 709.969C362.424 710.046 363.038 709.884 363.524 709.517C364.01 709.15 364.328 708.608 364.409 708.011C364.476 707.416 364.306 706.818 363.935 706.343C363.564 705.867 363.02 705.552 362.418 705.461L277.999 694.352L277.675 694.307ZM413.727 630.018C413.112 629.903 412.477 630.033 411.961 630.379C411.444 630.725 411.088 631.258 410.971 631.862C410.855 632.466 410.987 633.09 411.338 633.598C411.69 634.107 412.233 634.456 412.847 634.571L435.63 643.677C435.909 643.796 436.21 643.858 436.514 643.86C436.818 643.862 437.119 643.804 437.4 643.689C437.681 643.574 437.935 643.406 438.148 643.192C438.361 642.979 438.528 642.726 438.64 642.448C438.858 641.891 438.85 641.273 438.617 640.722C438.385 640.171 437.945 639.729 437.39 639.488L414.606 630.382C414.317 630.318 414.016 630.318 413.727 630.382L413.727 630.018ZM246.186 628.743C245.572 628.665 244.951 628.829 244.461 629.201C243.97 629.572 243.65 630.12 243.57 630.724C243.49 631.328 243.657 631.938 244.035 632.42C244.413 632.903 244.97 633.218 245.584 633.296L432.805 682.56C433.401 682.715 434.034 682.635 434.57 682.337C435.107 682.039 435.504 681.547 435.676 680.966C435.753 680.676 435.77 680.374 435.728 680.078C435.686 679.781 435.584 679.495 435.429 679.237C435.274 678.979 435.069 678.754 434.826 678.574C434.582 678.394 434.304 678.263 434.009 678.189L246.788 628.834L246.186 628.834L246.186 628.743ZM305.691 585.945C305.234 585.947 304.788 586.082 304.409 586.334C304.03 586.585 303.735 586.941 303.561 587.356C303.441 587.631 303.377 587.926 303.375 588.225C303.373 588.524 303.432 588.82 303.549 589.096C303.665 589.373 303.837 589.623 304.054 589.832C304.271 590.042 304.529 590.206 304.811 590.316L379.505 620.775C380.076 621.011 380.719 621.014 381.292 620.783C381.866 620.553 382.322 620.108 382.562 619.546C382.801 618.985 382.804 618.353 382.569 617.789C382.335 617.226 381.882 616.777 381.311 616.541L306.571 586.127C306.281 586.063 305.981 586.063 305.691 586.127L305.691 585.945ZM437.019 543.329C436.671 543.327 436.327 543.404 436.014 543.554C435.7 543.704 435.427 543.923 435.213 544.194C435.02 544.425 434.876 544.692 434.789 544.979C434.703 545.266 434.677 545.567 434.711 545.865C434.746 546.162 434.841 546.45 434.991 546.71C435.141 546.971 435.342 547.199 435.584 547.381L472.63 575.837C473.115 576.205 473.729 576.368 474.337 576.291C474.944 576.214 475.496 575.904 475.871 575.428C476.25 574.956 476.423 574.356 476.354 573.759C476.285 573.162 475.978 572.616 475.501 572.24L438.455 543.83C438.042 543.517 437.54 543.342 437.019 543.329ZM294.346 514.372C293.938 514.361 293.536 514.457 293.178 514.649C292.82 514.841 292.52 515.122 292.308 515.464C292.018 515.999 291.947 516.623 292.111 517.208C292.275 517.792 292.66 518.293 293.188 518.606L461.053 613.992C461.313 614.146 461.602 614.247 461.903 614.289C462.204 614.331 462.51 614.313 462.804 614.237C463.097 614.16 463.372 614.027 463.613 613.844C463.853 613.661 464.053 613.432 464.202 613.172C464.508 612.645 464.592 612.021 464.436 611.434C464.28 610.847 463.897 610.343 463.368 610.03L295.504 514.736C295.144 514.559 294.748 514.466 294.346 514.463L294.346 514.372ZM336.764 466.247C336.405 466.25 336.051 466.334 335.73 466.492C335.41 466.649 335.129 466.877 334.911 467.157C334.538 467.635 334.372 468.238 334.45 468.835C334.528 469.433 334.844 469.975 335.328 470.344L355.981 486.325C356.461 486.697 357.071 486.868 357.678 486.8C358.285 486.732 358.841 486.43 359.223 485.961C359.599 485.476 359.766 484.866 359.688 484.261C359.61 483.656 359.293 483.106 358.806 482.728L338.106 466.838C337.712 466.527 337.224 466.351 336.717 466.338L336.764 466.247ZM440.122 484.185C439.818 484.182 439.517 484.241 439.238 484.358C438.959 484.476 438.708 484.65 438.501 484.868C438.28 485.073 438.103 485.32 437.982 485.594C437.862 485.868 437.799 486.163 437.799 486.462C437.799 486.761 437.862 487.056 437.982 487.33C438.103 487.604 438.28 487.851 438.501 488.055L494.904 543.511C492.66 546.436 491.486 550.02 491.574 553.682C491.662 557.345 493.005 560.871 495.387 563.689C497.768 566.506 501.048 568.45 504.694 569.205C508.34 569.96 512.139 569.482 515.474 567.848C518.809 566.215 521.485 563.521 523.067 560.204C524.65 556.888 525.047 553.143 524.193 549.577C523.34 546.011 521.286 542.832 518.365 540.558C515.444 538.283 511.827 537.046 508.101 537.046C504.51 537.052 501.017 538.202 498.145 540.324L441.835 484.959C441.625 484.745 441.373 484.574 441.095 484.457C440.817 484.339 440.517 484.278 440.214 484.276L440.122 484.185ZM499.534 544.968C497.369 547.165 496.157 550.104 496.154 553.163C496.148 554.702 496.452 556.226 497.048 557.648C497.644 559.07 498.521 560.362 499.627 561.45C501.298 563.085 503.423 564.197 505.735 564.647C508.047 565.097 510.443 564.865 512.622 563.979C514.8 563.093 516.663 561.593 517.976 559.669C519.289 557.744 519.994 555.481 520.002 553.163C519.994 550.835 519.283 548.561 517.958 546.631C516.633 544.701 514.755 543.201 512.561 542.323C510.368 541.445 507.958 541.227 505.639 541.698C503.319 542.169 501.195 543.307 499.534 544.968ZM466.425 470.344C466.269 462.209 463.682 454.298 458.988 447.597C454.293 440.896 447.697 435.7 440.022 432.657C432.346 429.614 423.93 428.858 415.821 430.483C407.712 432.108 400.268 436.043 394.416 441.796C388.564 447.55 384.562 454.869 382.91 462.842C381.257 470.815 382.026 479.09 385.121 486.637C388.216 494.183 393.5 500.668 400.315 505.284C407.131 509.9 415.177 512.443 423.451 512.596C419.366 510.188 415.892 506.897 413.294 502.971C410.696 499.046 409.042 494.59 408.457 489.943C407.872 485.295 408.372 480.577 409.919 476.148C411.466 471.718 414.019 467.694 417.385 464.38C423.269 458.616 431.237 455.38 439.543 455.38C447.849 455.38 455.817 458.616 461.701 464.38C463.489 466.173 465.044 468.176 466.332 470.344L466.425 470.344ZM424.285 425.178C418.127 425.179 412.031 426.388 406.353 428.733C400.676 431.078 395.532 434.514 391.221 438.837C384.185 445.843 379.621 454.884 378.202 464.631C376.783 474.377 378.583 484.314 383.337 492.98C388.091 501.646 395.548 508.582 404.612 512.769C413.675 516.956 423.866 518.172 433.685 516.239C434.2 516.135 434.665 515.862 435.001 515.465C435.338 515.068 435.527 514.57 435.537 514.053C435.54 513.523 435.357 513.008 435.02 512.593C434.683 512.179 434.212 511.891 433.685 511.777C428.744 510.713 424.224 508.261 420.673 504.719C417.754 501.839 415.557 498.332 414.254 494.474C412.952 490.615 412.579 486.512 413.166 482.488C413.752 478.464 415.283 474.629 417.636 471.286C419.989 467.943 423.1 465.184 426.724 463.226C430.347 461.268 434.384 460.166 438.516 460.005C442.648 459.845 446.76 460.631 450.53 462.301C454.299 463.972 457.622 466.482 460.236 469.631C462.85 472.781 464.683 476.486 465.591 480.452C465.731 480.954 466.032 481.398 466.449 481.718C466.866 482.038 467.377 482.217 467.906 482.228C468.432 482.217 468.939 482.031 469.343 481.7C469.747 481.369 470.024 480.913 470.129 480.406C471.524 473.72 471.388 466.813 469.731 460.185C468.074 453.557 464.937 447.375 460.547 442.087C456.158 436.8 450.627 432.539 444.354 429.614C438.082 426.689 431.227 425.174 424.285 425.178ZM711.854 0.701904C711.24 0.701904 710.651 0.94165 710.217 1.36859C709.783 1.79553 709.539 2.37457 709.539 2.97833L709.539 507.679C643.997 508.354 581.333 534.254 534.985 579.823C488.637 625.393 462.295 687.005 461.609 751.447L2.74756 751.447C2.13348 751.447 1.5445 751.687 1.11029 752.113C0.676026 752.54 0.43219 753.119 0.43219 753.723C0.43219 754.327 0.676025 754.906 1.11029 755.333C1.54449 755.76 2.13348 756 2.74756 756L463.924 756C464.538 756 465.127 755.76 465.561 755.333C465.995 754.906 466.239 754.327 466.239 753.723C466.362 689.761 492.259 628.453 538.259 583.225C584.26 537.997 646.615 512.534 711.669 512.414C712.279 512.402 712.861 512.159 713.293 511.734C713.725 511.31 713.973 510.738 713.984 510.138L713.984 3.16046C713.984 2.5567 713.741 1.97766 713.306 1.55072C712.872 1.12384 712.283 0.883972 711.669 0.883972L711.854 0.701904Z" fill="black"/>
</svg>
