<svg width="714" height="756" viewBox="0 0 714 756" fill="none" xmlns="http://www.w3.org/2000/svg">
<path fill-rule="evenodd" clip-rule="evenodd" d="M371.062 357.125C369.23 357.127 367.455 357.753 366.04 358.897C364.626 360.041 363.658 361.632 363.302 363.399C362.946 365.165 363.225 366.999 364.09 368.587C364.955 370.174 366.353 371.418 368.046 372.106C369.739 372.794 371.622 372.883 373.375 372.359C375.127 371.835 376.641 370.729 377.657 369.231C378.674 367.732 379.131 365.934 378.95 364.142C378.769 362.349 377.961 360.674 376.665 359.401C375.173 357.95 373.161 357.133 371.062 357.125ZM371.062 377.204C373.536 377.192 375.951 376.463 378.004 375.106C380.057 373.75 381.656 371.827 382.602 369.579C383.547 367.332 383.795 364.859 383.316 362.473C382.836 360.087 381.65 357.894 379.907 356.169C377.834 354.149 375.113 352.9 372.207 352.634C369.302 352.368 366.393 353.103 363.977 354.712L342.953 334.087C342.738 333.873 342.482 333.704 342.2 333.588C341.918 333.473 341.615 333.413 341.309 333.413C341.004 333.413 340.701 333.473 340.419 333.588C340.137 333.704 339.881 333.873 339.666 334.087C339.238 334.52 338.999 335.099 338.999 335.703C338.999 336.306 339.238 336.886 339.666 337.319L360.689 357.99C359.395 359.84 358.64 362.004 358.509 364.247C358.377 366.489 358.872 368.724 359.941 370.709C361.01 372.694 362.612 374.353 364.573 375.506C366.533 376.659 368.778 377.262 371.062 377.249V377.204ZM58.4401 521.944C64.4943 524.01 69.9936 527.398 74.5251 531.853C79.0566 536.308 82.5025 541.715 84.6038 547.668C86.7112 541.719 90.1591 536.315 94.6897 531.86C99.2204 527.406 104.717 524.016 110.768 521.944C104.722 519.863 99.23 516.47 94.7006 512.016C90.1711 507.563 86.7201 502.163 84.6038 496.219C82.4965 502.168 79.0485 507.572 74.5179 512.027C69.9872 516.482 64.491 519.872 58.4401 521.944ZM84.6038 563.512C85.2179 563.512 85.8068 563.273 86.241 562.846C86.6752 562.419 86.9192 561.84 86.9192 561.236C86.9437 551.418 90.9244 542.01 97.9894 535.072C105.055 528.134 114.628 524.232 124.613 524.22C125.224 524.208 125.806 523.965 126.238 523.54C126.669 523.116 126.917 522.544 126.929 521.944C126.929 521.34 126.685 520.761 126.251 520.334C125.816 519.907 125.228 519.667 124.613 519.667C114.628 519.655 105.055 515.753 97.9894 508.815C90.9244 501.877 86.9437 492.469 86.9192 482.651C86.9192 482.047 86.6752 481.468 86.241 481.041C85.8068 480.614 85.2179 480.375 84.6038 480.375C83.9897 480.375 83.4008 480.614 82.9666 481.041C82.5324 481.468 82.2884 482.047 82.2884 482.651C82.2762 492.465 78.3058 501.873 71.2481 508.812C64.1903 515.751 54.6215 519.655 44.6404 519.667C44.0263 519.667 43.4374 519.907 43.0032 520.334C42.569 520.761 42.3251 521.34 42.3251 521.944C42.3251 522.547 42.569 523.126 43.0032 523.553C43.4374 523.98 44.0263 524.22 44.6404 524.22C54.6215 524.232 64.1903 528.136 71.2481 535.075C78.3058 542.014 82.2762 551.422 82.2884 561.236C82.3003 561.836 82.548 562.408 82.9797 562.833C83.4114 563.257 83.9935 563.501 84.6038 563.512ZM504.613 83.2616C510.659 85.3424 516.15 88.7354 520.68 93.1888C525.209 97.6423 528.66 103.042 530.777 108.986C532.884 103.037 536.332 97.6328 540.862 93.1782C545.393 88.7236 550.889 85.3336 556.94 83.2616C550.886 81.1955 545.387 77.8075 540.855 73.3521C536.324 68.8967 532.878 63.4897 530.777 57.5371C528.669 63.4864 525.221 68.8903 520.691 73.345C516.16 77.7996 510.664 81.1896 504.613 83.2616ZM530.777 124.648C531.078 124.654 531.378 124.601 531.659 124.492C531.94 124.382 532.195 124.219 532.411 124.011C532.627 123.803 532.798 123.555 532.915 123.282C533.032 123.008 533.092 122.714 533.092 122.417C533.092 112.596 537.057 103.176 544.116 96.2271C551.175 89.278 560.751 85.368 570.74 85.356C571.354 85.356 571.943 85.1161 572.377 84.6892C572.811 84.2623 573.055 83.6832 573.055 83.0795C573.055 82.4757 572.811 81.8967 572.377 81.4697C571.943 81.0428 571.354 80.803 570.74 80.803C560.759 80.7909 551.19 76.8871 544.132 69.9479C537.075 63.0087 533.104 53.6005 533.092 43.787C533.092 43.1832 532.848 42.6042 532.414 42.1773C531.979 41.7504 531.391 41.5105 530.777 41.5105C530.162 41.5105 529.574 41.7504 529.139 42.1773C528.705 42.6042 528.461 43.1832 528.461 43.787C528.449 53.6005 524.478 63.0087 517.421 69.9479C510.363 76.8871 500.794 80.7909 490.813 80.803C490.199 80.803 489.61 81.0428 489.176 81.4697C488.742 81.8967 488.498 82.4757 488.498 83.0795C488.498 83.6832 488.742 84.2623 489.176 84.6892C489.61 85.1161 490.199 85.356 490.813 85.356C500.799 85.38 510.367 89.2939 517.424 96.2403C524.48 103.187 528.449 112.6 528.461 122.417C528.461 122.714 528.521 123.008 528.638 123.282C528.755 123.555 528.926 123.803 529.142 124.011C529.358 124.219 529.613 124.382 529.894 124.492C530.175 124.601 530.475 124.654 530.777 124.648ZM86.2246 108.576C86.6272 108.574 87.0244 108.668 87.3823 108.849L99.237 115.542L102.895 102.931C103.004 102.563 103.206 102.229 103.481 101.958C103.756 101.688 104.096 101.49 104.47 101.383L117.436 97.6491L110.953 86.1755C110.77 85.8311 110.675 85.4484 110.675 85.06C110.675 84.6716 110.77 84.2889 110.953 83.9445L117.436 72.4709L104.609 68.8741C104.233 68.7708 103.891 68.5742 103.615 68.303C103.339 68.0318 103.139 67.6954 103.034 67.3261L99.3759 54.7142L87.5675 60.9063C87.2172 61.0859 86.828 61.1796 86.4329 61.1796C86.0379 61.1796 85.6487 61.0859 85.2984 60.9063L73.6289 54.5321L69.9706 67.1439C69.8839 67.5219 69.69 67.868 69.4113 68.142C69.1326 68.416 68.7807 68.6067 68.3962 68.6919L55.569 72.2888L61.8668 83.9445C62.0494 84.2889 62.1448 84.6716 62.1448 85.06C62.1448 85.4484 62.0494 85.8311 61.8668 86.1755L55.3838 97.6491L68.211 101.246C68.5908 101.341 68.9376 101.535 69.2148 101.807C69.4919 102.079 69.689 102.42 69.7854 102.794L73.6289 115.542L85.2984 109.168C85.6418 108.992 86.0226 108.899 86.4098 108.895L86.2246 108.576ZM103.173 117.682L139.756 137.67L119.612 101.883L106.97 105.435L103.544 117.682H103.173ZM119.427 68.4188L139.756 32.4956L103.544 52.4377L107.109 64.8674L119.751 68.4188H119.427ZM69.5076 52.4377L32.9709 32.45L53.2536 68.4188L65.8956 64.8674L69.5076 52.4377ZM53.2536 101.883L32.9246 137.807L69.5076 117.864L65.8956 105.435L53.2536 101.883ZM145.869 145.956C146.485 145.953 147.079 145.726 147.536 145.319C147.88 144.959 148.1 144.501 148.167 144.012C148.233 143.522 148.142 143.024 147.906 142.587L124.197 100.609L171.153 87.2682C171.687 87.1625 172.169 86.878 172.514 86.463C172.86 86.048 173.049 85.5281 173.049 84.9917C173.049 84.4553 172.86 83.9354 172.514 83.5204C172.169 83.1054 171.687 82.8209 171.153 82.7152L124.197 69.6936L147.906 27.7149C148.157 27.2824 148.256 26.781 148.189 26.2876C148.122 25.7942 147.893 25.336 147.536 24.9831C147.169 24.6449 146.704 24.4279 146.206 24.3625C145.708 24.2972 145.201 24.3868 144.757 24.6189L102.062 47.9303L88.6789 1.71726C88.5351 1.22253 88.2314 0.787306 87.8136 0.477455C87.3958 0.167605 86.8868 0 86.3635 0C85.8402 0 85.3311 0.167605 84.9133 0.477455C84.4956 0.787306 84.1918 1.22253 84.0481 1.71726L70.6189 47.8847L28.1086 24.4823C27.678 24.2318 27.174 24.1315 26.6782 24.1976C26.1824 24.2637 25.7238 24.4923 25.3765 24.8465C25.0121 25.194 24.7738 25.6496 24.6985 26.1432C24.6232 26.6368 24.715 27.141 24.9597 27.5783L48.6692 69.557L1.66707 82.8518C1.18613 82.9897 0.763672 83.2773 0.463086 83.6713C0.162499 84.0654 0 84.5447 0 85.0373C0 85.5298 0.162499 86.0091 0.463086 86.4031C0.763672 86.7972 1.18613 87.0848 1.66707 87.2227L48.6229 100.426L24.8208 142.405C24.5761 142.838 24.4815 143.337 24.5511 143.827C24.6208 144.317 24.8511 144.771 25.207 145.121C25.5629 145.471 26.0252 145.698 26.5237 145.766C27.0222 145.835 27.5298 145.742 27.9697 145.501L70.6653 122.19L84.187 168.357C84.2945 168.883 84.5839 169.356 85.006 169.696C85.4281 170.036 85.9568 170.222 86.5024 170.222C87.048 170.222 87.5767 170.036 87.9988 169.696C88.4209 169.356 88.7103 168.883 88.8178 168.357L102.201 122.19L144.896 145.501C145.24 145.677 145.62 145.771 146.008 145.774L145.869 145.956ZM97.894 120.095L86.4098 113.63L74.9718 120.095L86.4098 159.615L97.894 120.095ZM50.9846 96.3287L57.2361 85.0373L50.8456 73.7913L10.9286 85.0373L51.1235 96.3287H50.9846ZM74.9718 50.2068L86.4098 56.3533L97.9404 50.0702L86.4561 10.8233L74.9718 50.3433V50.2068ZM122.067 73.7913L115.491 85.0373L122.067 96.3287L162.261 85.0373L122.067 73.7913ZM204.077 265.018C204.598 265.004 205.1 264.829 205.513 264.517C205.99 264.141 206.296 263.595 206.366 262.998C206.435 262.401 206.262 261.801 205.883 261.33L176.987 224.906C176.81 224.648 176.581 224.43 176.314 224.263C176.048 224.096 175.749 223.984 175.437 223.935C175.125 223.886 174.806 223.9 174.499 223.977C174.193 224.054 173.906 224.191 173.656 224.381C173.406 224.571 173.198 224.809 173.045 225.081C172.892 225.353 172.797 225.653 172.766 225.963C172.736 226.272 172.77 226.584 172.867 226.88C172.963 227.176 173.121 227.449 173.329 227.683L202.225 264.107C202.443 264.387 202.723 264.615 203.044 264.772C203.365 264.93 203.718 265.014 204.077 265.018ZM116.093 287.783C116.4 287.826 116.712 287.826 117.019 287.783C117.574 287.542 118.014 287.1 118.247 286.549C118.479 285.998 118.488 285.38 118.269 284.823L109.008 262.422C108.738 261.922 108.289 261.539 107.747 261.347C107.205 261.156 106.611 261.169 106.079 261.385C105.547 261.601 105.115 262.004 104.869 262.516C104.623 263.028 104.58 263.611 104.748 264.152L114.009 286.553C114.188 286.965 114.484 287.318 114.862 287.569C115.24 287.819 115.683 287.957 116.139 287.965L116.093 287.783ZM35.5178 305.995C36.1292 305.904 36.6801 305.582 37.0524 305.097C37.4247 304.611 37.5886 304.002 37.5091 303.399L33.9897 277.675C33.9502 277.376 33.8512 277.088 33.6983 276.826C33.5454 276.565 33.3417 276.336 33.0987 276.152C32.8557 275.968 32.5783 275.833 32.2823 275.754C31.9863 275.676 31.6774 275.655 31.3733 275.694C31.0693 275.733 30.776 275.831 30.5102 275.981C30.2444 276.131 30.0113 276.331 29.8243 276.57C29.6372 276.809 29.4999 277.082 29.42 277.373C29.3402 277.664 29.3194 277.968 29.359 278.267L32.8783 304.037C32.9465 304.58 33.2153 305.08 33.6337 305.441C34.052 305.801 34.5908 305.999 35.1474 305.995H35.5178ZM282.568 363.681C283.094 363.698 283.607 363.519 284.004 363.18C284.488 362.811 284.804 362.269 284.882 361.671C284.96 361.074 284.794 360.471 284.421 359.993L268.213 339.641C268.036 339.379 267.805 339.155 267.535 338.985C267.265 338.815 266.962 338.702 266.645 338.653C266.328 338.604 266.005 338.62 265.695 338.7C265.385 338.78 265.095 338.923 264.844 339.119C264.593 339.316 264.386 339.561 264.237 339.84C264.087 340.118 263.998 340.425 263.975 340.739C263.952 341.054 263.996 341.369 264.104 341.666C264.212 341.963 264.381 342.235 264.601 342.464L280.762 362.816C280.982 363.08 281.258 363.293 281.569 363.443C281.881 363.592 282.222 363.673 282.568 363.681ZM160.872 394.186C161.164 394.23 161.46 394.23 161.752 394.186C162.319 393.945 162.767 393.496 163 392.934C163.234 392.373 163.235 391.743 163.002 391.181L132.069 317.741C131.953 317.463 131.783 317.21 131.568 316.997C131.353 316.784 131.098 316.614 130.816 316.498C130.535 316.381 130.232 316.321 129.927 316.319C129.621 316.318 129.319 316.376 129.036 316.489C128.753 316.603 128.496 316.77 128.279 316.981C128.062 317.193 127.889 317.444 127.771 317.721C127.653 317.998 127.591 318.295 127.59 318.595C127.588 318.896 127.647 319.193 127.762 319.471L158.742 392.957C158.918 393.368 159.215 393.717 159.594 393.961C159.974 394.204 160.419 394.33 160.872 394.323V394.186ZM233.205 405.296C233.614 405.303 234.017 405.193 234.362 404.977C234.627 404.831 234.86 404.634 235.046 404.398C235.232 404.161 235.368 403.891 235.445 403.602C235.523 403.313 235.541 403.012 235.498 402.717C235.455 402.421 235.352 402.137 235.196 401.881L138.413 236.789C138.28 236.499 138.086 236.239 137.844 236.027C137.602 235.815 137.318 235.655 137.009 235.558C136.701 235.461 136.375 235.429 136.053 235.463C135.731 235.498 135.42 235.598 135.139 235.758C134.859 235.918 134.617 236.135 134.427 236.393C134.237 236.651 134.104 236.945 134.038 237.257C133.971 237.569 133.971 237.891 134.039 238.202C134.107 238.514 134.24 238.808 134.431 239.065L231.352 404.157C231.554 404.501 231.844 404.788 232.194 404.987C232.543 405.187 232.939 405.293 233.343 405.296H233.205ZM50.4752 421.641H50.7993C51.4107 421.551 51.9616 421.228 52.3339 420.743C52.7062 420.258 52.8701 419.648 52.7906 419.046L41.4915 336.09C41.4108 335.493 41.0925 334.951 40.6064 334.584C40.1203 334.217 39.5061 334.055 38.8983 334.132C38.2908 334.211 37.74 334.524 37.3668 335.002C36.9935 335.48 36.8282 336.084 36.9071 336.682L48.1598 419.683C48.2475 420.226 48.5284 420.721 48.9524 421.079C49.3764 421.438 49.916 421.637 50.4752 421.641ZM117.065 452.465H117.667C117.963 452.39 118.24 452.26 118.484 452.08C118.727 451.9 118.932 451.674 119.087 451.416C119.242 451.158 119.344 450.873 119.386 450.576C119.429 450.279 119.411 449.977 119.334 449.687L69.1371 265.792C68.9745 265.214 68.5867 264.722 68.0578 264.424C67.529 264.126 66.9017 264.044 66.3123 264.198C66.018 264.272 65.7418 264.403 65.5 264.583C65.2581 264.764 65.0556 264.991 64.9045 265.25C64.7533 265.509 64.6566 265.795 64.62 266.091C64.5835 266.388 64.6078 266.688 64.6916 266.975L114.843 451.099C114.974 451.58 115.263 452.006 115.665 452.31C116.066 452.614 116.558 452.781 117.065 452.783V452.465ZM318.827 46.3367C319.441 46.3729 320.045 46.1678 320.505 45.7665C320.965 45.3652 321.245 44.8006 321.281 44.1968C321.318 43.593 321.11 42.9996 320.701 42.5471C320.293 42.0945 319.719 41.8199 319.105 41.7837L292.895 38.3234C292.291 38.269 291.689 38.4404 291.209 38.8033C290.728 39.1662 290.404 39.6939 290.302 40.2812C290.223 40.8788 290.388 41.4827 290.761 41.9607C291.135 42.4386 291.685 42.7515 292.293 42.8309L318.503 46.2912L318.827 46.3367ZM436.541 61.8169C436.845 61.8348 437.15 61.7937 437.437 61.6959C437.725 61.5981 437.991 61.4454 438.219 61.2467C438.447 61.048 438.632 60.8071 438.766 60.5378C438.899 60.2685 438.977 59.976 438.995 59.677C439.013 59.3781 438.971 59.0785 438.872 58.7954C438.772 58.5124 438.617 58.2513 438.415 58.0273C438.213 57.8032 437.968 57.6205 437.694 57.4895C437.42 57.3585 437.123 57.2818 436.819 57.2639L352.4 46.1546C351.792 46.077 351.178 46.2396 350.692 46.6065C350.206 46.9735 349.888 47.515 349.807 48.1124C349.74 48.7079 349.91 49.3056 350.281 49.7808C350.652 50.2559 351.196 50.5717 351.798 50.6621L436.217 61.7714L436.541 61.8169ZM300.489 126.105C301.103 126.22 301.739 126.09 302.255 125.744C302.772 125.399 303.128 124.865 303.245 124.261C303.361 123.658 303.229 123.033 302.878 122.525C302.526 122.017 301.983 121.667 301.369 121.552L278.586 112.446C278.307 112.328 278.006 112.266 277.702 112.264C277.398 112.262 277.097 112.32 276.816 112.434C276.535 112.549 276.281 112.718 276.068 112.931C275.855 113.144 275.688 113.398 275.576 113.676C275.358 114.232 275.366 114.85 275.599 115.401C275.831 115.952 276.271 116.394 276.826 116.635L299.609 125.741C299.899 125.806 300.2 125.806 300.489 125.741V126.105ZM468.03 127.38C468.644 127.459 469.265 127.294 469.755 126.923C470.246 126.551 470.566 126.003 470.646 125.4C470.726 124.796 470.559 124.186 470.181 123.703C469.803 123.221 469.246 122.906 468.632 122.827L281.411 73.5637C280.815 73.4087 280.182 73.4887 279.646 73.7864C279.109 74.084 278.712 74.576 278.54 75.1572C278.463 75.4472 278.445 75.7492 278.488 76.0459C278.53 76.3426 278.632 76.6281 278.787 76.8862C278.942 77.1442 279.147 77.3696 279.39 77.5495C279.634 77.7294 279.911 77.8603 280.207 77.9345L467.428 127.289H468.03V127.38ZM408.525 170.178C408.982 170.176 409.428 170.041 409.807 169.79C410.186 169.539 410.481 169.183 410.655 168.767C410.775 168.493 410.839 168.197 410.841 167.898C410.843 167.599 410.784 167.303 410.667 167.027C410.551 166.751 410.379 166.501 410.162 166.291C409.945 166.082 409.687 165.917 409.405 165.808L334.711 135.348C334.139 135.112 333.497 135.11 332.924 135.34C332.35 135.571 331.894 136.016 331.654 136.577C331.415 137.139 331.412 137.771 331.646 138.334C331.881 138.898 332.333 139.347 332.905 139.582L407.645 169.996C407.935 170.061 408.235 170.061 408.525 169.996V170.178ZM277.197 212.795C277.545 212.796 277.889 212.719 278.202 212.569C278.516 212.419 278.789 212.2 279.003 211.929C279.196 211.698 279.34 211.431 279.426 211.144C279.513 210.857 279.539 210.556 279.505 210.259C279.47 209.961 279.375 209.674 279.225 209.413C279.075 209.153 278.874 208.925 278.632 208.742L241.586 180.286C241.101 179.919 240.487 179.756 239.879 179.833C239.272 179.909 238.72 180.22 238.345 180.696C237.966 181.168 237.793 181.767 237.862 182.364C237.931 182.962 238.238 183.507 238.715 183.883L275.761 212.294C276.174 212.606 276.676 212.782 277.197 212.795ZM419.87 241.752C420.277 241.762 420.68 241.666 421.038 241.474C421.396 241.283 421.696 241.001 421.908 240.659C422.198 240.124 422.269 239.5 422.105 238.916C421.941 238.331 421.556 237.831 421.028 237.517L253.163 142.132C252.903 141.978 252.614 141.877 252.313 141.835C252.012 141.793 251.706 141.81 251.412 141.887C251.119 141.963 250.844 142.097 250.603 142.28C250.363 142.463 250.163 142.691 250.014 142.951C249.708 143.478 249.624 144.102 249.78 144.689C249.935 145.276 250.319 145.78 250.848 146.093L418.712 241.387C419.072 241.564 419.468 241.657 419.87 241.661V241.752ZM377.452 289.877C377.811 289.873 378.165 289.79 378.486 289.632C378.806 289.474 379.087 289.246 379.305 288.966C379.678 288.489 379.844 287.885 379.766 287.288C379.688 286.691 379.372 286.148 378.888 285.779L358.235 269.798C357.755 269.426 357.145 269.255 356.538 269.324C355.93 269.392 355.375 269.693 354.993 270.162C354.617 270.647 354.45 271.258 354.528 271.863C354.606 272.467 354.923 273.018 355.41 273.395L376.109 289.285C376.504 289.597 376.992 289.773 377.499 289.786L377.452 289.877ZM274.094 271.938C274.398 271.942 274.699 271.883 274.978 271.765C275.257 271.648 275.508 271.474 275.715 271.255C275.936 271.051 276.113 270.804 276.234 270.53C276.354 270.256 276.417 269.96 276.417 269.662C276.417 269.363 276.354 269.067 276.234 268.793C276.113 268.519 275.936 268.272 275.715 268.068L219.312 212.612C221.556 209.688 222.73 206.104 222.642 202.441C222.554 198.778 221.211 195.253 218.829 192.435C216.448 189.617 213.168 187.673 209.522 186.918C205.876 186.163 202.077 186.641 198.742 188.275C195.407 189.909 192.731 192.602 191.149 195.919C189.566 199.236 189.169 202.981 190.023 206.547C190.876 210.113 192.93 213.291 195.851 215.565C198.772 217.84 202.389 219.078 206.115 219.078C209.706 219.071 213.199 217.921 216.071 215.799L272.381 271.164C272.591 271.378 272.842 271.549 273.121 271.667C273.399 271.784 273.699 271.845 274.001 271.847L274.094 271.938ZM214.682 211.155C216.847 208.958 218.059 206.02 218.062 202.96C218.068 201.422 217.764 199.898 217.168 198.475C216.572 197.053 215.695 195.761 214.589 194.674C212.918 193.039 210.793 191.926 208.481 191.476C206.168 191.026 203.772 191.259 201.594 192.145C199.416 193.03 197.553 194.53 196.24 196.455C194.927 198.379 194.222 200.642 194.214 202.96C194.221 205.289 194.933 207.562 196.258 209.493C197.583 211.423 199.461 212.922 201.655 213.8C203.848 214.679 206.258 214.896 208.577 214.425C210.897 213.954 213.021 212.816 214.682 211.155ZM247.791 285.779C247.947 293.915 250.534 301.826 255.228 308.527C259.923 315.228 266.518 320.423 274.194 323.466C281.869 326.509 290.286 327.265 298.395 325.64C306.504 324.015 313.948 320.081 319.8 314.327C325.652 308.573 329.654 301.254 331.306 293.281C332.959 285.308 332.19 277.033 329.095 269.487C326 261.94 320.716 255.455 313.901 250.839C307.085 246.223 299.039 243.681 290.765 243.527C294.85 245.935 298.324 249.227 300.922 253.152C303.52 257.077 305.174 261.533 305.759 266.181C306.344 270.829 305.844 275.546 304.297 279.976C302.75 284.405 300.197 288.43 296.831 291.744C290.947 297.507 282.979 300.743 274.673 300.743C266.367 300.743 258.399 297.507 252.515 291.744C250.727 289.95 249.172 287.947 247.884 285.779H247.791ZM289.931 330.945C296.089 330.944 302.185 329.736 307.862 327.39C313.54 325.045 318.684 321.61 322.995 317.286C330.031 310.28 334.595 301.239 336.014 291.492C337.433 281.746 335.633 271.809 330.879 263.143C326.125 254.478 318.668 247.541 309.604 243.354C300.541 239.168 290.35 237.951 280.531 239.885C280.016 239.988 279.551 240.261 279.215 240.658C278.878 241.055 278.689 241.553 278.679 242.07C278.676 242.601 278.859 243.116 279.196 243.53C279.533 243.944 280.004 244.232 280.531 244.347C285.472 245.411 289.992 247.862 293.543 251.404C296.461 254.284 298.659 257.792 299.962 261.65C301.264 265.508 301.637 269.611 301.05 273.636C300.463 277.66 298.933 281.495 296.58 284.837C294.227 288.18 291.116 290.94 287.492 292.897C283.868 294.855 279.831 295.958 275.7 296.118C271.568 296.279 267.456 295.493 263.686 293.822C259.917 292.151 256.594 289.642 253.98 286.492C251.366 283.342 249.533 279.638 248.625 275.672C248.485 275.17 248.184 274.726 247.767 274.406C247.35 274.086 246.839 273.907 246.31 273.896C245.784 273.906 245.277 274.092 244.873 274.423C244.469 274.754 244.192 275.21 244.087 275.717C242.692 282.403 242.828 289.311 244.485 295.938C246.142 302.566 249.279 308.748 253.669 314.036C258.058 319.324 263.589 323.585 269.862 326.509C276.134 329.434 282.989 330.949 289.931 330.945ZM2.36169 755.422C2.97577 755.422 3.56469 755.182 3.99891 754.755C4.43313 754.328 4.67707 753.749 4.67707 753.145V248.445C70.2193 247.769 132.883 221.87 179.231 176.3C225.579 130.73 251.921 69.1186 252.607 4.67672H711.468C712.082 4.67672 712.672 4.43688 713.106 4.00995C713.54 3.58302 713.784 3.00398 713.784 2.40022C713.784 1.79645 713.54 1.21741 713.106 0.790485C712.672 0.363558 712.082 0.123715 711.468 0.123715H250.292C249.678 0.123715 249.089 0.363558 248.655 0.790485C248.221 1.21741 247.977 1.79645 247.977 2.40022C247.854 66.3624 221.957 127.67 175.957 172.899C129.956 218.127 67.6013 243.589 2.54691 243.709C1.93654 243.721 1.35449 243.965 0.922815 244.389C0.491141 244.814 0.243389 245.386 0.231534 245.986V752.963C0.231534 753.567 0.475473 754.146 0.90969 754.573C1.34391 755 1.93283 755.239 2.54691 755.239L2.36169 755.422Z" fill="black"/>
</svg>
