<svg width="391" height="62" viewBox="0 0 391 62" fill="none" xmlns="http://www.w3.org/2000/svg">
<path d="M63.4141 0C69.9358 0 75.2379 2.20489 79.3206 6.60881C83.4033 11.0127 85.4475 17.2706 85.4475 25.3825V59.4208C85.4475 60.1987 85.2119 60.8245 84.7406 61.2923C84.491 61.5304 84.195 61.7155 83.8709 61.8362C83.5467 61.9569 83.2012 62.0106 82.8554 61.9942H80.8523C80.5065 62.0106 80.161 61.9569 79.8368 61.8362C79.5127 61.7155 79.2168 61.5304 78.9671 61.2923C78.7273 61.0445 78.5409 60.7507 78.4193 60.4289C78.2977 60.1071 78.2436 59.7641 78.2602 59.4208V26.5522C78.2602 19.458 76.7873 14.3873 73.8417 11.3461C70.8961 8.30488 67.0255 6.78427 62.2359 6.78427C57.9941 6.78427 54.3238 8.32242 51.2191 11.4046C48.1144 14.4867 46.565 19.534 46.565 26.5522V59.4208C46.565 60.1987 46.3294 60.8245 45.8581 61.2923C45.6084 61.5304 45.3125 61.7155 44.9883 61.8362C44.6642 61.9569 44.3186 62.0106 43.9728 61.9942H41.9698C41.624 62.0106 41.2785 61.9569 40.9543 61.8362C40.6302 61.7155 40.3342 61.5304 40.0846 61.2923C39.8447 61.0445 39.6583 60.7507 39.5368 60.4289C39.4152 60.1071 39.3611 59.7641 39.3776 59.4208V26.5522C39.3776 19.534 37.8459 14.4867 34.7824 11.4046C31.719 8.32242 27.9073 6.78427 23.3533 6.78427C19.1116 6.78427 15.4413 8.32242 12.3366 11.4046C9.23189 14.4867 7.68248 19.4931 7.68248 26.4352V59.4208C7.68248 60.1987 7.44683 60.8245 6.97553 61.2923C6.7259 61.5304 6.42996 61.7155 6.1058 61.8362C5.78165 61.9569 5.43611 62.0106 5.09031 61.9942H3.08728C2.74148 62.0106 2.39594 61.9569 2.07179 61.8362C1.74764 61.7155 1.45169 61.5304 1.20206 61.2923C0.9622 61.0445 0.775789 60.7507 0.654232 60.4289C0.532676 60.1071 0.47853 59.7641 0.495107 59.4208V3.74304C0.495107 2.96519 0.730759 2.3394 1.20206 1.87152C1.67337 1.40364 2.30373 1.1697 3.08728 1.1697H5.09031C5.87386 1.1697 6.50423 1.40364 6.97553 1.87152C7.44683 2.3394 7.68248 2.96519 7.68248 3.74304V7.837C9.72676 5.26365 12.101 3.3161 14.8109 1.98849C17.5209 0.660881 20.7612 0 24.5316 0C33.3273 0 39.6133 3.66701 43.3837 10.9952C45.2762 7.63498 48.07 4.86144 51.4548 2.98274C54.9483 0.994246 58.9367 0 63.4141 0ZM279.742 0C287.442 0 293.369 2.43883 297.534 7.31063C301.699 12.1824 303.779 18.4813 303.779 26.2013V59.4208C303.779 60.1987 303.543 60.8245 303.072 61.2923C302.822 61.5304 302.526 61.7155 302.202 61.8362C301.878 61.9569 301.532 62.0106 301.187 61.9942H299.184C298.838 62.0106 298.492 61.9569 298.168 61.8362C297.844 61.7155 297.548 61.5304 297.298 61.2923C297.059 61.0445 296.872 60.7507 296.751 60.4289C296.629 60.1071 296.575 59.7641 296.591 59.4208V26.7862C296.591 20.4698 295.042 15.557 291.937 12.0479C288.833 8.53882 284.379 6.78427 278.564 6.78427C272.908 6.78427 268.39 8.55636 265.014 12.1064C261.638 15.6564 259.948 20.5458 259.948 26.7862V59.4208C259.948 60.1987 259.712 60.8245 259.241 61.2923C258.991 61.5304 258.695 61.7155 258.371 61.8362C258.047 61.9569 257.701 62.0106 257.355 61.9942H255.352C255.007 62.0106 254.661 61.9569 254.337 61.8362C254.013 61.7155 253.717 61.5304 253.467 61.2923C253.227 61.0445 253.041 60.7507 252.919 60.4289C252.798 60.1071 252.744 59.7641 252.76 59.4208V3.74304C252.76 2.96519 252.996 2.3394 253.467 1.87152C253.939 1.40364 254.569 1.1697 255.352 1.1697H257.355C258.139 1.1697 258.769 1.40364 259.241 1.87152C259.712 2.3394 259.948 2.96519 259.948 3.74304V9.24064C262.304 6.19942 264.996 3.90095 268.019 2.3394C271.041 0.777851 274.953 0 279.742 0ZM343.551 1.1697C344.258 1.1697 344.788 1.30422 345.142 1.5791C345.495 1.85398 345.949 2.29846 346.497 2.92425L364.17 25.4995L381.844 3.04122L382.221 2.60258L382.434 2.3394C382.703 1.97101 383.058 1.67241 383.468 1.46882C383.878 1.26523 384.332 1.16263 384.79 1.1697H387.147C387.777 1.1697 388.325 1.40364 388.796 1.87152C389.267 2.3394 389.503 2.88331 389.503 3.5091C389.471 4.37361 389.138 5.20027 388.56 5.84851L368.648 31.231L389.385 57.3153C389.962 57.9636 390.295 58.7902 390.328 59.6548C390.328 60.2805 390.092 60.8245 389.621 61.2923C389.409 61.5148 389.153 61.6919 388.869 61.8126C388.586 61.9333 388.28 61.9951 387.971 61.9942H385.497C384.401 61.9942 383.417 61.4093 382.551 60.2396L363.935 36.6116L345.318 60.2396C344.908 60.727 344.454 61.1772 343.963 61.5848C343.61 61.8596 343.08 61.9942 342.373 61.9942H340.016C339.392 61.9942 338.838 61.7602 338.367 61.2923C338.143 61.0817 337.964 60.8277 337.843 60.5461C337.721 60.2645 337.659 59.9611 337.66 59.6548C337.692 58.7902 338.025 57.9636 338.602 57.3153L359.34 30.8801L339.663 5.84851C339.086 5.20027 338.753 4.37361 338.72 3.5091C338.72 2.88331 338.956 2.3394 339.427 1.87152C339.898 1.40364 340.452 1.1697 341.077 1.1697H343.551ZM136.454 3.5091C144.267 3.5091 151.759 6.59 157.283 12.074C162.807 17.5581 165.911 24.996 165.911 32.7516C165.911 40.5072 162.807 47.9452 157.283 53.4292C151.759 58.9133 144.267 61.9942 136.454 61.9942C128.642 61.9942 121.15 58.9133 115.625 53.4292C110.101 47.9452 106.998 40.5072 106.998 32.7516C106.998 24.996 110.101 17.5581 115.625 12.074C121.15 6.59 128.642 3.5091 136.454 3.5091ZM213.041 3.5091C217.23 3.5091 221.218 4.38638 224.83 5.94793C219.691 8.16704 215.297 11.7954 212.163 16.407C209.03 21.0187 207.286 26.4222 207.138 31.9831C206.989 37.544 208.442 43.0316 211.325 47.8016C214.209 52.5715 218.403 56.4258 223.416 58.912L224.588 59.4618L224.83 59.5612C220.817 61.2989 216.464 62.1267 212.088 61.9843C207.712 61.842 203.423 60.733 199.534 58.7382C195.644 56.7434 192.251 53.9129 189.601 50.4526C186.952 46.9923 185.113 42.9892 184.218 38.7346C183.323 34.48 183.395 30.0809 184.428 25.8572C185.461 21.6336 187.43 17.6917 190.19 14.3183C192.951 10.9449 196.435 8.22484 200.387 6.35603C204.34 4.48723 208.663 3.51082 213.041 3.5091Z" fill="#292929"/>
</svg>
