<svg width="151" height="149" viewBox="0 0 151 149" fill="none" xmlns="http://www.w3.org/2000/svg">
<path d="M0.492188 49.591H50.4922V0.276367H0.492188V49.591ZM8.82552 8.49548H42.1589V41.3719H8.82552V8.49548ZM17.1589 16.7146H33.8255V33.1528H17.1589V16.7146ZM100.492 49.591H150.492V0.276367H100.492V49.591ZM108.826 8.49548H142.159V41.3719H108.826V8.49548ZM117.159 16.7146H133.826V33.1528H117.159V16.7146ZM0.492188 148.22H50.4922V98.9057H0.492188V148.22ZM8.82552 107.125H42.1589V140.001H8.82552V107.125ZM17.1589 115.344H33.8255V131.782H17.1589V115.344ZM142.159 131.782H150.492V148.22H133.826V123.563H142.159V131.782ZM142.159 107.125H150.492V115.344H142.159V107.125ZM142.159 98.9057V107.125H133.826V98.9057H142.159ZM58.8255 115.344H67.1589V148.22H58.8255V115.344ZM25.4922 57.8101V74.2484H8.82552V66.0292H0.492188V57.8101H25.4922ZM58.8255 33.1528H67.1589V41.3719H58.8255V33.1528ZM83.8255 8.49548V24.9337H75.4922V0.276367H92.1589V8.49548H83.8255ZM58.8255 8.49548H67.1589V16.7146H58.8255V8.49548ZM142.159 74.2484H150.492V90.6866H133.826V82.4675H142.159V74.2484ZM133.826 57.8101V66.0292H117.159V82.4675H100.492V74.2484H108.826V57.8101H133.826ZM75.4922 90.6866H67.1589V82.4675H58.8255V74.2484H75.4922V90.6866ZM125.492 107.125H133.826V115.344H125.492V107.125ZM142.159 66.0292V74.2484H133.826V66.0292H142.159ZM67.1589 90.6866V98.9057H58.8255V90.6866H67.1589ZM117.159 131.782H125.492V148.22H108.826V131.782H117.159ZM92.1589 131.782H100.492V140.001H92.1589V148.22H75.4922V140.001H83.8255V131.782H92.1589ZM92.1589 123.563V115.344H108.826V123.563H92.1589ZM92.1589 82.4675H100.492V107.125H92.1589V115.344H83.8255V123.563H75.4922V107.125H67.1589V98.9057H92.1589V90.6866H83.8255V82.4675H92.1589ZM17.1589 82.4675V90.6866H8.82552V82.4675H17.1589ZM117.159 115.344H108.826V107.125H117.159V115.344ZM125.492 98.9057H108.826V90.6866H125.492V98.9057ZM42.1589 57.8101H50.4922V66.0292H42.1589V74.2484H50.4922V90.6866H42.1589V82.4675H33.8255V90.6866H25.4922V74.2484H33.8255V57.8101H42.1589ZM67.1589 57.8101V41.3719H92.1589V66.0292H75.4922V57.8101H83.8255V49.591H75.4922V57.8101H67.1589ZM67.1589 24.9337H75.4922V33.1528H67.1589V24.9337ZM58.8255 57.8101H67.1589V66.0292H58.8255V57.8101ZM83.8255 33.1528V24.9337H92.1589V33.1528H83.8255Z" fill="black"/>
</svg>
