<svg width="408" height="111" viewBox="0 0 408 111" fill="none" xmlns="http://www.w3.org/2000/svg">
<path fill-rule="evenodd" clip-rule="evenodd" d="M202.286 40.3373C202.267 30.8202 198.423 21.6989 191.596 14.9726C184.77 8.24638 175.518 4.4641 165.869 4.45469H2.29682C1.82109 4.44558 1.36742 4.25508 1.03097 3.92324C0.694515 3.5914 0.501427 3.144 0.492188 2.67479C0.492188 2.20274 0.682344 1.74993 1.02078 1.41613C1.35921 1.08234 1.8182 0.894897 2.29682 0.894897H165.869C174.402 0.904251 182.711 3.59856 189.585 8.58591C196.459 13.5733 201.541 20.5935 204.091 28.6256C206.648 20.5906 211.736 13.5693 218.617 8.58222C225.497 3.59513 233.811 0.902236 242.349 0.894897H405.885C406.363 0.894897 406.823 1.08234 407.161 1.41613C407.499 1.74993 407.689 2.20274 407.689 2.67479C407.689 3.14685 407.499 3.59944 407.161 3.93324C406.823 4.26703 406.363 4.45469 405.885 4.45469H242.349C232.696 4.46407 223.441 8.24522 216.608 14.9705C209.776 21.6957 205.924 30.8169 205.896 40.3373C205.896 40.8093 205.705 41.2621 205.367 41.5959C205.028 41.9297 204.57 42.1172 204.091 42.1172C203.612 42.1172 203.153 41.9297 202.815 41.5959C202.476 41.2621 202.286 40.8093 202.286 40.3373ZM128.26 35.4249C128.486 35.4754 128.72 35.4754 128.946 35.4249L153.236 25.493C153.675 25.3119 154.024 24.9673 154.206 24.5339C154.389 24.1006 154.39 23.6137 154.211 23.1792C154.02 22.7438 153.664 22.3994 153.218 22.2198C152.773 22.0401 152.274 22.0395 151.829 22.218L127.574 32.1498C127.354 32.2356 127.153 32.3643 126.984 32.528C126.815 32.6918 126.681 32.8873 126.59 33.1032C126.499 33.319 126.453 33.5508 126.455 33.7845C126.457 34.0182 126.506 34.2492 126.6 34.4637C126.735 34.7888 126.965 35.0669 127.261 35.2633C127.556 35.4597 127.904 35.5655 128.26 35.5673V35.4249ZM105.197 44.8583C105.424 44.8914 105.655 44.8914 105.883 44.8583L113.498 41.7256C113.719 41.6398 113.919 41.5114 114.088 41.3476C114.258 41.1838 114.391 40.9881 114.482 40.7722C114.573 40.5564 114.619 40.3248 114.618 40.0911C114.616 39.8574 114.567 39.6265 114.473 39.4119C114.386 39.1945 114.255 38.9965 114.089 38.8298C113.923 38.6631 113.725 38.531 113.506 38.4413C113.287 38.3517 113.052 38.3063 112.816 38.3079C112.579 38.3096 112.344 38.3581 112.127 38.4507L104.511 41.5477C104.033 41.6374 103.61 41.9109 103.336 42.3081C103.061 42.7054 102.958 43.1938 103.049 43.6659C103.14 44.1379 103.418 44.5549 103.82 44.8252C104.223 45.0956 104.718 45.1972 105.197 45.1075V44.8583ZM172.69 79.246C172.463 79.2791 172.232 79.2791 172.004 79.246C171.783 79.1565 171.581 79.0242 171.412 78.8571C171.243 78.69 171.109 78.4913 171.018 78.2726C170.927 78.0539 170.882 77.8197 170.884 77.5834C170.886 77.3472 170.935 77.1135 171.03 76.8964L181.064 52.9747C181.154 52.7573 181.286 52.5595 181.454 52.3926C181.621 52.2258 181.821 52.0931 182.04 52.0022C182.26 51.9113 182.495 51.864 182.733 51.8629C182.971 51.8618 183.207 51.9069 183.428 51.9957C183.648 52.0845 183.849 52.2152 184.018 52.3805C184.187 52.5457 184.321 52.7423 184.414 52.9588C184.506 53.1754 184.554 53.4076 184.555 53.6424C184.556 53.8772 184.51 54.1101 184.42 54.3274L174.35 78.2848C174.215 78.6098 173.985 78.888 173.69 79.0844C173.394 79.2807 173.047 79.3866 172.69 79.3883V79.246ZM163.126 101.993C162.9 102.043 162.666 102.043 162.44 101.993C162.22 101.907 162.019 101.779 161.85 101.615C161.681 101.451 161.547 101.255 161.456 101.04C161.365 100.824 161.319 100.592 161.321 100.358C161.322 100.125 161.371 99.8938 161.465 99.6792L164.606 92.1681C164.696 91.9507 164.828 91.7528 164.996 91.586C165.163 91.4192 165.362 91.2865 165.582 91.1956C165.801 91.1047 166.037 91.0574 166.275 91.0563C166.513 91.0552 166.749 91.1002 166.97 91.189C167.19 91.2779 167.39 91.4086 167.56 91.5738C167.729 91.7391 167.863 91.9357 167.955 92.1522C168.048 92.3687 168.096 92.6009 168.097 92.8358C168.098 93.0706 168.052 93.3032 167.962 93.5206L164.786 101.032C164.651 101.357 164.421 101.635 164.125 101.831C163.83 102.028 163.482 102.134 163.126 102.135V101.993ZM279.921 35.4249C280.278 35.4232 280.626 35.3174 280.921 35.121C281.216 34.9246 281.446 34.6465 281.582 34.3214C281.676 34.1068 281.725 33.8757 281.727 33.642C281.728 33.4083 281.682 33.1767 281.591 32.9609C281.5 32.745 281.366 32.5493 281.197 32.3855C281.028 32.2217 280.828 32.0933 280.607 32.0075L256.353 22.0757C255.912 21.8986 255.419 21.9001 254.979 22.0801C254.54 22.2601 254.191 22.6039 254.007 23.0367C253.913 23.2513 253.864 23.4824 253.862 23.7161C253.86 23.9498 253.906 24.1814 253.997 24.3973C254.088 24.6131 254.222 24.8086 254.391 24.9724C254.56 25.1362 254.761 25.2649 254.981 25.3507L279.236 35.2824C279.461 35.3328 279.696 35.3328 279.921 35.2824V35.4249ZM303.021 44.8583C303.376 44.852 303.722 44.7445 304.016 44.5487C304.311 44.3528 304.542 44.0771 304.681 43.7547C304.853 43.3144 304.848 42.8261 304.666 42.3894C304.485 41.9527 304.142 41.6007 303.707 41.4054L296.091 38.3084C295.871 38.2064 295.633 38.1491 295.39 38.1402C295.147 38.1313 294.905 38.1707 294.678 38.2562C294.452 38.3417 294.245 38.4717 294.07 38.638C293.895 38.8043 293.756 39.0036 293.661 39.2242C293.566 39.4447 293.518 39.6819 293.518 39.9214C293.519 40.1609 293.568 40.3979 293.663 40.6182C293.759 40.8385 293.898 41.0375 294.074 41.2033C294.249 41.3691 294.456 41.4984 294.683 41.5833L302.335 44.716C302.562 44.7531 302.794 44.7531 303.021 44.716V44.8583ZM235.491 79.246C235.136 79.2397 234.791 79.132 234.496 78.9362C234.201 78.7404 233.97 78.4648 233.831 78.1425L223.797 54.1849C223.704 53.9703 223.654 53.7394 223.653 53.5057C223.651 53.272 223.697 53.0404 223.788 52.8246C223.879 52.6087 224.013 52.413 224.182 52.2492C224.351 52.0854 224.551 51.957 224.772 51.8712C225.212 51.694 225.706 51.6955 226.145 51.8755C226.585 52.0555 226.934 52.3993 227.118 52.8322L237.188 76.7541C237.36 77.1945 237.354 77.6828 237.173 78.1194C236.992 78.5561 236.649 78.9081 236.213 79.1035C235.974 79.1371 235.731 79.1371 235.491 79.1035V79.246ZM245.056 101.993C244.701 101.987 244.355 101.879 244.06 101.683C243.766 101.487 243.535 101.212 243.396 100.889L240.256 93.3783C240.162 93.1637 240.112 92.9328 240.111 92.6991C240.109 92.4654 240.155 92.2338 240.246 92.0179C240.337 91.8021 240.471 91.6064 240.64 91.4426C240.809 91.2788 241.01 91.1501 241.23 91.0643C241.448 90.9717 241.682 90.9232 241.919 90.9216C242.156 90.92 242.391 90.9653 242.609 91.055C242.828 91.1446 243.027 91.2767 243.193 91.4435C243.359 91.6102 243.489 91.8081 243.576 92.0255L246.752 99.5367C246.84 99.754 246.884 99.9864 246.881 100.22C246.877 100.454 246.827 100.686 246.734 100.9C246.64 101.115 246.504 101.31 246.334 101.473C246.163 101.636 245.962 101.764 245.742 101.851C245.516 101.904 245.281 101.904 245.056 101.851V101.993ZM128.405 79.1035C127.917 79.1023 127.449 78.9104 127.105 78.5696C126.775 78.2369 126.589 77.7895 126.589 77.3236C126.589 76.8577 126.775 76.4104 127.105 76.0777L150.313 53.1883C150.65 52.8622 151.104 52.6794 151.576 52.6794C152.048 52.6794 152.502 52.8622 152.839 53.1883C153.008 53.3537 153.143 53.5506 153.234 53.7675C153.326 53.9844 153.373 54.217 153.373 54.4519C153.373 54.6869 153.326 54.9195 153.234 55.1363C153.143 55.3532 153.008 55.5501 152.839 55.7156L129.668 78.5696C129.504 78.7373 129.308 78.8708 129.091 78.9625C128.874 79.0542 128.641 79.1021 128.405 79.1035ZM279.813 79.1035C279.325 79.1023 278.858 78.9104 278.514 78.5696L255.342 55.7156C255.174 55.5496 255.041 55.3527 254.95 55.1359C254.859 54.9191 254.812 54.6866 254.812 54.4519C254.812 54.2172 254.859 53.9848 254.95 53.768C255.041 53.5511 255.174 53.3542 255.342 53.1883C255.511 53.0223 255.71 52.8907 255.93 52.8009C256.15 52.7111 256.386 52.6649 256.624 52.6649C256.862 52.6649 257.097 52.7111 257.317 52.8009C257.537 52.8907 257.737 53.0223 257.905 53.1883L281.076 76.0777C281.249 76.2375 281.387 76.4305 281.481 76.6448C281.575 76.8591 281.623 77.0901 281.623 77.3236C281.623 77.5571 281.575 77.7883 281.481 78.0025C281.387 78.2168 281.249 78.4098 281.076 78.5696C280.743 78.905 280.289 79.0968 279.813 79.1035ZM204.019 110.038C203.54 110.038 203.081 109.851 202.743 109.517C202.404 109.183 202.214 108.73 202.214 108.258V75.9352C202.214 75.4631 202.404 75.0106 202.743 74.6768C203.081 74.343 203.54 74.1553 204.019 74.1553C204.497 74.1553 204.956 74.343 205.295 74.6768C205.633 75.0106 205.823 75.4631 205.823 75.9352V108.258C205.824 108.718 205.643 109.16 205.32 109.492C204.997 109.824 204.557 110.02 204.091 110.038H204.019Z" fill="black"/>
</svg>
